<svg xmlns="http://www.w3.org/2000/svg" version="1.1" xmlns:xlink="http://www.w3.org/1999/xlink" xmlns:svgjs="http://svgjs.com/svgjs" width="1440" height="560" preserveAspectRatio="none" viewBox="0 0 1440 560"><g mask="url(&quot;#SvgjsMask1012&quot;)" fill="none"><rect width="1440" height="560" x="0" y="0" fill="#0e2a47"></rect><path d="M1140 165L1383 -78" stroke-width="8" stroke="url(#SvgjsLinearGradient1013)" stroke-linecap="round" class="BottomLeft"></path><path d="M1193 308L842 659" stroke-width="6" stroke="url(#SvgjsLinearGradient1014)" stroke-linecap="round" class="BottomLeft"></path><path d="M266 218L-96 580" stroke-width="8" stroke="url(#SvgjsLinearGradient1015)" stroke-linecap="round" class="TopRight"></path><path d="M580 529L836 273" stroke-width="6" stroke="url(#SvgjsLinearGradient1013)" stroke-linecap="round" class="BottomLeft"></path><path d="M100 347L-222 669" stroke-width="8" stroke="url(#SvgjsLinearGradient1015)" stroke-linecap="round" class="TopRight"></path><path d="M863 502L531 834" stroke-width="10" stroke="url(#SvgjsLinearGradient1014)" stroke-linecap="round" class="BottomLeft"></path><path d="M272 453L-119 844" stroke-width="10" stroke="url(#SvgjsLinearGradient1013)" stroke-linecap="round" class="BottomLeft"></path><path d="M258 517L487 288" stroke-width="10" stroke="url(#SvgjsLinearGradient1014)" stroke-linecap="round" class="BottomLeft"></path><path d="M765 107L1139 -267" stroke-width="8" stroke="url(#SvgjsLinearGradient1015)" stroke-linecap="round" class="TopRight"></path><path d="M1047 481L1268 260" stroke-width="8" stroke="url(#SvgjsLinearGradient1014)" stroke-linecap="round" class="BottomLeft"></path><path d="M1042 419L1190 271" stroke-width="10" stroke="url(#SvgjsLinearGradient1015)" stroke-linecap="round" class="TopRight"></path><path d="M237 276L88 425" stroke-width="8" stroke="url(#SvgjsLinearGradient1013)" stroke-linecap="round" class="BottomLeft"></path><path d="M235 358L-45 638" stroke-width="8" stroke="url(#SvgjsLinearGradient1014)" stroke-linecap="round" class="BottomLeft"></path><path d="M750 282L601 431" stroke-width="6" stroke="url(#SvgjsLinearGradient1016)" stroke-linecap="round" class="TopRight"></path><path d="M631 388L470 549" stroke-width="10" stroke="url(#SvgjsLinearGradient1014)" stroke-linecap="round" class="BottomLeft"></path><path d="M489 355L799 45" stroke-width="6" stroke="url(#SvgjsLinearGradient1013)" stroke-linecap="round" class="BottomLeft"></path><path d="M197 251L349 99" stroke-width="6" stroke="url(#SvgjsLinearGradient1015)" stroke-linecap="round" class="TopRight"></path><path d="M1166 130L1393 -97" stroke-width="8" stroke="url(#SvgjsLinearGradient1013)" stroke-linecap="round" class="BottomLeft"></path><path d="M542 494L242 794" stroke-width="8" stroke="url(#SvgjsLinearGradient1014)" stroke-linecap="round" class="BottomLeft"></path><path d="M283 410L-116 809" stroke-width="10" stroke="url(#SvgjsLinearGradient1014)" stroke-linecap="round" class="BottomLeft"></path><path d="M1088 500L693 895" stroke-width="10" stroke="url(#SvgjsLinearGradient1013)" stroke-linecap="round" class="BottomLeft"></path><path d="M117 420L-248 785" stroke-width="10" stroke="url(#SvgjsLinearGradient1013)" stroke-linecap="round" class="BottomLeft"></path><path d="M1253 117L941 429" stroke-width="8" stroke="url(#SvgjsLinearGradient1016)" stroke-linecap="round" class="TopRight"></path><path d="M314 7L58 263" stroke-width="10" stroke="url(#SvgjsLinearGradient1014)" stroke-linecap="round" class="BottomLeft"></path><path d="M198 149L614 -267" stroke-width="10" stroke="url(#SvgjsLinearGradient1013)" stroke-linecap="round" class="BottomLeft"></path><path d="M530 269L695 104" stroke-width="10" stroke="url(#SvgjsLinearGradient1015)" stroke-linecap="round" class="TopRight"></path><path d="M920 191L761 350" stroke-width="6" stroke="url(#SvgjsLinearGradient1014)" stroke-linecap="round" class="BottomLeft"></path><path d="M549 345L856 38" stroke-width="10" stroke="url(#SvgjsLinearGradient1015)" stroke-linecap="round" class="TopRight"></path><path d="M878 304L1042 140" stroke-width="6" stroke="url(#SvgjsLinearGradient1014)" stroke-linecap="round" class="BottomLeft"></path><path d="M1189 491L1463 217" stroke-width="10" stroke="url(#SvgjsLinearGradient1015)" stroke-linecap="round" class="TopRight"></path><path d="M0 400L327 73" stroke-width="8" stroke="url(#SvgjsLinearGradient1016)" stroke-linecap="round" class="TopRight"></path><path d="M265 339L581 23" stroke-width="10" stroke="url(#SvgjsLinearGradient1014)" stroke-linecap="round" class="BottomLeft"></path><path d="M77 488L-180 745" stroke-width="10" stroke="url(#SvgjsLinearGradient1014)" stroke-linecap="round" class="BottomLeft"></path><path d="M255 351L102 504" stroke-width="6" stroke="url(#SvgjsLinearGradient1013)" stroke-linecap="round" class="BottomLeft"></path><path d="M378 13L184 207" stroke-width="6" stroke="url(#SvgjsLinearGradient1013)" stroke-linecap="round" class="BottomLeft"></path><path d="M356 443L114 685" stroke-width="6" stroke="url(#SvgjsLinearGradient1015)" stroke-linecap="round" class="TopRight"></path><path d="M1422 94L1188 328" stroke-width="6" stroke="url(#SvgjsLinearGradient1014)" stroke-linecap="round" class="BottomLeft"></path><path d="M248 338L-143 729" stroke-width="6" stroke="url(#SvgjsLinearGradient1014)" stroke-linecap="round" class="BottomLeft"></path><path d="M1155 301L891 565" stroke-width="6" stroke="url(#SvgjsLinearGradient1016)" stroke-linecap="round" class="TopRight"></path></g><defs><mask id="SvgjsMask1012"><rect width="1440" height="560" fill="#ffffff"></rect></mask><linearGradient x1="100%" y1="0%" x2="0%" y2="100%" id="SvgjsLinearGradient1013"><stop stop-color="rgba(28, 83, 142, 0)" offset="0"></stop><stop stop-color="#1c538e" offset="1"></stop></linearGradient><linearGradient x1="100%" y1="0%" x2="0%" y2="100%" id="SvgjsLinearGradient1014"><stop stop-color="rgba(74, 84, 201, 0)" offset="0"></stop><stop stop-color="rgba(74, 84, 201, 1)" offset="1"></stop></linearGradient><linearGradient x1="0%" y1="100%" x2="100%" y2="0%" id="SvgjsLinearGradient1015"><stop stop-color="rgba(74, 84, 201, 0)" offset="0"></stop><stop stop-color="rgba(74, 84, 201, 1)" offset="1"></stop></linearGradient><linearGradient x1="0%" y1="100%" x2="100%" y2="0%" id="SvgjsLinearGradient1016"><stop stop-color="rgba(28, 83, 142, 0)" offset="0"></stop><stop stop-color="#1c538e" offset="1"></stop></linearGradient></defs></svg>