<svg xmlns="http://www.w3.org/2000/svg" version="1.1" xmlns:xlink="http://www.w3.org/1999/xlink" xmlns:svgjs="http://svgjs.com/svgjs" width="1440" height="560" preserveAspectRatio="none" viewBox="0 0 1440 560"><g mask="url(&quot;#SvgjsMask1002&quot;)" fill="none"><path d="M86.97835843323921 262.30488520859814L-38.86099990208815 379.4279695517693 104.06108459684201 425.8661698321355z" fill="rgba(28, 83, 142, 0.4)" class="triangle-float1"></path><path d="M1231.76 382.32 a182.16 182.16 0 1 0 364.32 0 a182.16 182.16 0 1 0 -364.32 0z" fill="rgba(28, 83, 142, 0.4)" class="triangle-float3"></path><path d="M397.1162462286066 559.2983911342772L504.18240109152975 452.232236271354 290.05009136568344 452.232236271354z" fill="rgba(28, 83, 142, 0.4)" class="triangle-float3"></path><path d="M143.717,262.388C170.744,262.508,198.932,254.508,212.648,231.22C226.53,207.65,221.026,178.371,207.047,154.859C193.412,131.926,170.391,114.701,143.717,115.284C117.882,115.848,98.111,135.255,85.004,157.525C71.656,180.205,62.985,207.649,75.841,230.611C88.922,253.974,116.941,262.269,143.717,262.388" fill="rgba(28, 83, 142, 0.4)" class="triangle-float1"></path><path d="M1190.187,107.597C1217.614,108.469,1243.541,92.859,1256.355,68.594C1268.443,45.704,1263.138,18.107,1248.841,-3.472C1236.033,-22.804,1213.375,-30.944,1190.187,-31.275C1166.28,-31.616,1141.13,-25.526,1128.56,-5.188C1115.442,16.035,1118.961,42.713,1130.924,64.608C1143.466,87.562,1164.043,106.766,1190.187,107.597" fill="rgba(28, 83, 142, 0.4)" class="triangle-float3"></path><path d="M1073.923311119849 435.4952332835992L1178.4056005039076 428.28917398576664 1128.5433946038409 351.50811010174505z" fill="rgba(28, 83, 142, 0.4)" class="triangle-float3"></path></g><defs><mask id="SvgjsMask1002"><rect width="1440" height="560" fill="#ffffff"></rect></mask><style>
            @keyframes float1 {
                0%{transform: translate(0, 0)}
                50%{transform: translate(-10px, 0)}
                100%{transform: translate(0, 0)}
            }

            .triangle-float1 {
                animation: float1 5s infinite;
            }

            @keyframes float2 {
                0%{transform: translate(0, 0)}
                50%{transform: translate(-5px, -5px)}
                100%{transform: translate(0, 0)}
            }

            .triangle-float2 {
                animation: float2 4s infinite;
            }

            @keyframes float3 {
                0%{transform: translate(0, 0)}
                50%{transform: translate(0, -10px)}
                100%{transform: translate(0, 0)}
            }

            .triangle-float3 {
                animation: float3 6s infinite;
            }
        </style></defs></svg>