<svg xmlns="http://www.w3.org/2000/svg" version="1.1" xmlns:xlink="http://www.w3.org/1999/xlink" xmlns:svgjs="http://svgjs.com/svgjs" width="1440" height="560" preserveAspectRatio="none" viewBox="0 0 1440 560"><g mask="url(&quot;#SvgjsMask1001&quot;)" fill="none"><path d="M26.98 -57.44L91.93 -19.94L91.93 55.06L26.98 92.56L-37.97 55.06L-37.97 -19.94zM221.84 280.06L286.8 317.56L286.8 392.56L221.84 430.06L156.89 392.56L156.89 317.56zM286.8 -57.44L351.75 -19.94L351.75 55.06L286.8 92.56L221.84 55.06L221.84 -19.94zM286.8 392.56L351.75 430.06L351.75 505.06L286.8 542.56L221.84 505.06L221.84 430.06zM416.7 -57.44L481.66 -19.94L481.66 55.06L416.7 92.56L351.75 55.06L351.75 -19.94zM481.66 505.06L546.61 542.56L546.61 617.56L481.66 655.06L416.7 617.56L416.7 542.56zM871.38 55.06L936.33 92.56L936.33 167.56L871.38 205.06L806.42 167.56L806.42 92.56zM936.33 -57.44L1001.29 -19.94L1001.29 55.06L936.33 92.56L871.38 55.06L871.38 -19.94zM1001.29 55.06L1066.24 92.56L1066.24 167.56L1001.29 205.06L936.33 167.56L936.33 92.56zM1066.24 167.56L1131.19 205.06L1131.19 280.06L1066.24 317.56L1001.29 280.06L1001.29 205.06zM1391.01 55.06L1455.96 92.56L1455.96 167.56L1391.01 205.06L1326.06 167.56L1326.06 92.56zM1326.06 392.56L1391.01 430.06L1391.01 505.06L1326.06 542.56L1261.1 505.06L1261.1 430.06zM1391.01 505.06L1455.96 542.56L1455.96 617.56L1391.01 655.06L1326.06 617.56L1326.06 542.56zM1520.92 505.06L1585.87 542.56L1585.87 617.56L1520.92 655.06L1455.96 617.56L1455.96 542.56z" stroke="#03305d" stroke-width="2"></path><path d="M19.48 -57.44 a7.5 7.5 0 1 0 15 0 a7.5 7.5 0 1 0 -15 0zM84.43 -19.94 a7.5 7.5 0 1 0 15 0 a7.5 7.5 0 1 0 -15 0zM84.43 55.06 a7.5 7.5 0 1 0 15 0 a7.5 7.5 0 1 0 -15 0zM19.48 92.56 a7.5 7.5 0 1 0 15 0 a7.5 7.5 0 1 0 -15 0zM-45.47 55.06 a7.5 7.5 0 1 0 15 0 a7.5 7.5 0 1 0 -15 0zM-45.47 -19.94 a7.5 7.5 0 1 0 15 0 a7.5 7.5 0 1 0 -15 0zM214.34 280.06 a7.5 7.5 0 1 0 15 0 a7.5 7.5 0 1 0 -15 0zM279.3 317.56 a7.5 7.5 0 1 0 15 0 a7.5 7.5 0 1 0 -15 0zM279.3 392.56 a7.5 7.5 0 1 0 15 0 a7.5 7.5 0 1 0 -15 0zM214.34 430.06 a7.5 7.5 0 1 0 15 0 a7.5 7.5 0 1 0 -15 0zM149.39 392.56 a7.5 7.5 0 1 0 15 0 a7.5 7.5 0 1 0 -15 0zM149.39 317.56 a7.5 7.5 0 1 0 15 0 a7.5 7.5 0 1 0 -15 0zM279.3 -57.44 a7.5 7.5 0 1 0 15 0 a7.5 7.5 0 1 0 -15 0zM344.25 -19.94 a7.5 7.5 0 1 0 15 0 a7.5 7.5 0 1 0 -15 0zM344.25 55.06 a7.5 7.5 0 1 0 15 0 a7.5 7.5 0 1 0 -15 0zM279.3 92.56 a7.5 7.5 0 1 0 15 0 a7.5 7.5 0 1 0 -15 0zM214.34 55.06 a7.5 7.5 0 1 0 15 0 a7.5 7.5 0 1 0 -15 0zM214.34 -19.94 a7.5 7.5 0 1 0 15 0 a7.5 7.5 0 1 0 -15 0zM344.25 430.06 a7.5 7.5 0 1 0 15 0 a7.5 7.5 0 1 0 -15 0zM344.25 505.06 a7.5 7.5 0 1 0 15 0 a7.5 7.5 0 1 0 -15 0zM279.3 542.56 a7.5 7.5 0 1 0 15 0 a7.5 7.5 0 1 0 -15 0zM214.34 505.06 a7.5 7.5 0 1 0 15 0 a7.5 7.5 0 1 0 -15 0zM409.2 -57.44 a7.5 7.5 0 1 0 15 0 a7.5 7.5 0 1 0 -15 0zM474.16 -19.94 a7.5 7.5 0 1 0 15 0 a7.5 7.5 0 1 0 -15 0zM474.16 55.06 a7.5 7.5 0 1 0 15 0 a7.5 7.5 0 1 0 -15 0zM409.2 92.56 a7.5 7.5 0 1 0 15 0 a7.5 7.5 0 1 0 -15 0zM474.16 505.06 a7.5 7.5 0 1 0 15 0 a7.5 7.5 0 1 0 -15 0zM539.11 542.56 a7.5 7.5 0 1 0 15 0 a7.5 7.5 0 1 0 -15 0zM539.11 617.56 a7.5 7.5 0 1 0 15 0 a7.5 7.5 0 1 0 -15 0zM474.16 655.06 a7.5 7.5 0 1 0 15 0 a7.5 7.5 0 1 0 -15 0zM409.2 617.56 a7.5 7.5 0 1 0 15 0 a7.5 7.5 0 1 0 -15 0zM409.2 542.56 a7.5 7.5 0 1 0 15 0 a7.5 7.5 0 1 0 -15 0zM863.88 55.06 a7.5 7.5 0 1 0 15 0 a7.5 7.5 0 1 0 -15 0zM928.83 92.56 a7.5 7.5 0 1 0 15 0 a7.5 7.5 0 1 0 -15 0zM928.83 167.56 a7.5 7.5 0 1 0 15 0 a7.5 7.5 0 1 0 -15 0zM863.88 205.06 a7.5 7.5 0 1 0 15 0 a7.5 7.5 0 1 0 -15 0zM798.92 167.56 a7.5 7.5 0 1 0 15 0 a7.5 7.5 0 1 0 -15 0zM798.92 92.56 a7.5 7.5 0 1 0 15 0 a7.5 7.5 0 1 0 -15 0zM928.83 -57.44 a7.5 7.5 0 1 0 15 0 a7.5 7.5 0 1 0 -15 0zM993.79 -19.94 a7.5 7.5 0 1 0 15 0 a7.5 7.5 0 1 0 -15 0zM993.79 55.06 a7.5 7.5 0 1 0 15 0 a7.5 7.5 0 1 0 -15 0zM863.88 -19.94 a7.5 7.5 0 1 0 15 0 a7.5 7.5 0 1 0 -15 0zM1058.74 92.56 a7.5 7.5 0 1 0 15 0 a7.5 7.5 0 1 0 -15 0zM1058.74 167.56 a7.5 7.5 0 1 0 15 0 a7.5 7.5 0 1 0 -15 0zM993.79 205.06 a7.5 7.5 0 1 0 15 0 a7.5 7.5 0 1 0 -15 0zM1123.69 205.06 a7.5 7.5 0 1 0 15 0 a7.5 7.5 0 1 0 -15 0zM1123.69 280.06 a7.5 7.5 0 1 0 15 0 a7.5 7.5 0 1 0 -15 0zM1058.74 317.56 a7.5 7.5 0 1 0 15 0 a7.5 7.5 0 1 0 -15 0zM993.79 280.06 a7.5 7.5 0 1 0 15 0 a7.5 7.5 0 1 0 -15 0zM1383.51 55.06 a7.5 7.5 0 1 0 15 0 a7.5 7.5 0 1 0 -15 0zM1448.46 92.56 a7.5 7.5 0 1 0 15 0 a7.5 7.5 0 1 0 -15 0zM1448.46 167.56 a7.5 7.5 0 1 0 15 0 a7.5 7.5 0 1 0 -15 0zM1383.51 205.06 a7.5 7.5 0 1 0 15 0 a7.5 7.5 0 1 0 -15 0zM1318.56 167.56 a7.5 7.5 0 1 0 15 0 a7.5 7.5 0 1 0 -15 0zM1318.56 92.56 a7.5 7.5 0 1 0 15 0 a7.5 7.5 0 1 0 -15 0zM1318.56 392.56 a7.5 7.5 0 1 0 15 0 a7.5 7.5 0 1 0 -15 0zM1383.51 430.06 a7.5 7.5 0 1 0 15 0 a7.5 7.5 0 1 0 -15 0zM1383.51 505.06 a7.5 7.5 0 1 0 15 0 a7.5 7.5 0 1 0 -15 0zM1318.56 542.56 a7.5 7.5 0 1 0 15 0 a7.5 7.5 0 1 0 -15 0zM1253.6 505.06 a7.5 7.5 0 1 0 15 0 a7.5 7.5 0 1 0 -15 0zM1253.6 430.06 a7.5 7.5 0 1 0 15 0 a7.5 7.5 0 1 0 -15 0zM1448.46 542.56 a7.5 7.5 0 1 0 15 0 a7.5 7.5 0 1 0 -15 0zM1448.46 617.56 a7.5 7.5 0 1 0 15 0 a7.5 7.5 0 1 0 -15 0zM1383.51 655.06 a7.5 7.5 0 1 0 15 0 a7.5 7.5 0 1 0 -15 0zM1318.56 617.56 a7.5 7.5 0 1 0 15 0 a7.5 7.5 0 1 0 -15 0zM1513.42 505.06 a7.5 7.5 0 1 0 15 0 a7.5 7.5 0 1 0 -15 0zM1578.37 542.56 a7.5 7.5 0 1 0 15 0 a7.5 7.5 0 1 0 -15 0zM1578.37 617.56 a7.5 7.5 0 1 0 15 0 a7.5 7.5 0 1 0 -15 0zM1513.42 655.06 a7.5 7.5 0 1 0 15 0 a7.5 7.5 0 1 0 -15 0z" fill="#03305d"></path><path d="M8.86 -14.47L52.16 10.53L52.16 60.53L8.86 85.53L-34.44 60.53L-34.44 10.53zM52.16 60.53L95.47 85.53L95.47 135.53L52.16 160.53L8.86 135.53L8.86 85.53zM8.86 135.53L52.16 160.53L52.16 210.53L8.86 235.53L-34.44 210.53L-34.44 160.53zM52.16 510.53L95.47 535.53L95.47 585.53L52.16 610.53L8.86 585.53L8.86 535.53zM95.47 -14.47L138.77 10.53L138.77 60.53L95.47 85.53L52.16 60.53L52.16 10.53zM138.77 60.53L182.07 85.53L182.07 135.53L138.77 160.53L95.47 135.53L95.47 85.53zM95.47 135.53L138.77 160.53L138.77 210.53L95.47 235.53L52.16 210.53L52.16 160.53zM311.98 60.53L355.28 85.53L355.28 135.53L311.98 160.53L268.68 135.53L268.68 85.53zM355.28 435.53L398.58 460.53L398.58 510.53L355.28 535.53L311.98 510.53L311.98 460.53zM441.89 -14.47L485.19 10.53L485.19 60.53L441.89 85.53L398.58 60.53L398.58 10.53zM485.19 510.53L528.49 535.53L528.49 585.53L485.19 610.53L441.89 585.53L441.89 535.53zM571.79 210.53L615.1 235.53L615.1 285.53L571.79 310.53L528.49 285.53L528.49 235.53zM615.1 285.53L658.4 310.53L658.4 360.53L615.1 385.53L571.79 360.53L571.79 310.53zM615.1 435.53L658.4 460.53L658.4 510.53L615.1 535.53L571.79 510.53L571.79 460.53zM701.7 285.53L745 310.53L745 360.53L701.7 385.53L658.4 360.53L658.4 310.53zM788.31 135.53L831.61 160.53L831.61 210.53L788.31 235.53L745 210.53L745 160.53zM788.31 435.53L831.61 460.53L831.61 510.53L788.31 535.53L745 510.53L745 460.53zM918.21 210.53L961.52 235.53L961.52 285.53L918.21 310.53L874.91 285.53L874.91 235.53zM918.21 510.53L961.52 535.53L961.52 585.53L918.21 610.53L874.91 585.53L874.91 535.53zM1091.42 360.53L1134.72 385.53L1134.72 435.53L1091.42 460.53L1048.12 435.53L1048.12 385.53zM1178.03 360.53L1221.33 385.53L1221.33 435.53L1178.03 460.53L1134.72 435.53L1134.72 385.53zM1221.33 -14.47L1264.63 10.53L1264.63 60.53L1221.33 85.53L1178.03 60.53L1178.03 10.53zM1221.33 435.53L1264.63 460.53L1264.63 510.53L1221.33 535.53L1178.03 510.53L1178.03 460.53zM1437.84 210.53L1481.14 235.53L1481.14 285.53L1437.84 310.53L1394.54 285.53L1394.54 235.53zM1437.84 360.53L1481.14 385.53L1481.14 435.53L1437.84 460.53L1394.54 435.53L1394.54 385.53zM1394.54 435.53L1437.84 460.53L1437.84 510.53L1394.54 535.53L1351.24 510.53L1351.24 460.53z" stroke="rgba(6, 80, 156, 0.93)" stroke-width="2"></path></g><defs><mask id="SvgjsMask1001"><rect width="1440" height="560" fill="#ffffff"></rect></mask></defs></svg>